<?xml version="1.0" standalone="no"?>
<!DOCTYPE svg PUBLIC "-//W3C//DTD SVG 20010904//EN"
 "http://www.w3.org/TR/2001/REC-SVG-20010904/DTD/svg10.dtd">
<svg version="1.0" xmlns="http://www.w3.org/2000/svg"
 width="180.000000pt" height="180.000000pt" viewBox="0 0 180.000000 180.000000"
 preserveAspectRatio="xMidYMid meet">
<metadata>
Created by potrace 1.11, written by Peter Selinger 2001-2013
</metadata>
<g transform="translate(0.000000,180.000000) scale(0.100000,-0.100000)"
fill="#000000" stroke="none">
<path d="M80 1781 c-19 -11 -45 -37 -58 -59 l-22 -41 2 -793 c3 -761 4 -794
22 -821 10 -16 36 -37 57 -48 37 -18 66 -19 819 -19 763 0 782 0 820 20 26 13
47 34 60 60 20 38 20 57 20 817 0 749 -1 780 -20 821 -15 33 -29 47 -62 62
-41 19 -72 20 -823 19 -740 0 -782 -1 -815 -18z"/>
</g>
</svg>
